<svg width="1024" height="1028" viewBox="0 0 1024 1028" fill="none" xmlns="http://www.w3.org/2000/svg">
<g filter="url(#filter0_d_153_688)">
<path fill-rule="evenodd" clip-rule="evenodd" d="M512 1003.61C783.511 1003.61 1003.61 783.511 1003.61 512C1003.61 240.489 783.511 20.386 512 20.386C240.489 20.386 20.386 240.489 20.386 512C20.386 783.511 240.489 1003.61 512 1003.61ZM512 1019.61C792.347 1019.61 1019.61 792.347 1019.61 512C1019.61 231.653 792.347 4.38599 512 4.38599C231.653 4.38599 4.38599 231.653 4.38599 512C4.38599 792.347 231.653 1019.61 512 1019.61Z" fill="#00263D"/>
</g>
<circle cx="512" cy="512" r="463.03" fill="#00263D"/>
<path d="M169.667 613.951C298.111 613.951 344.924 657.404 409.74 689.244C464.02 715.908 515.257 736.503 571.482 746.351C626.588 716.985 683.089 689.814 783.267 689.814C837.664 689.814 876.742 699.154 902.62 708.854C906.943 708.854 911.329 709.742 915.708 711.311C920.934 710.129 926.309 708.922 931.756 707.711C925.531 721.041 918.687 734.024 911.266 746.625C905.664 744.371 900.515 742.324 896.191 740.651C844.864 755.979 782.971 773.8 765.348 776.065C684.422 786.463 624.332 786.686 575.287 780.611C571.008 782.903 566.692 785.215 562.316 787.535C496.923 822.201 421.144 847.847 269.621 847.847C256.94 847.847 220.88 842.859 182.054 836.855C178.2 832.941 174.415 828.96 170.702 824.912C203.639 828.723 242.176 832.172 269.621 832.172C397.165 832.172 467.164 801.221 524.434 771.365C504.049 766.413 485.391 760.328 467.353 753.545C462.376 751.674 457.468 749.804 452.605 747.951C391.441 724.645 337.259 703.999 239.828 716.518C189.589 722.973 155.717 736.079 134.755 747.164C130.517 749.405 124.857 752.512 118.456 756.083C112.434 746.395 106.76 736.469 101.452 726.321C107.367 722.382 113.528 719.68 119.796 718.875C144.227 705.956 181.796 691.711 235.75 684.779C282.83 678.729 320.962 679.981 354.268 685.324C305.148 663.204 253.571 646.502 177.937 646.502C127 646.502 90.3137 649 70.5269 652.045C68.4471 645.483 66.5099 638.858 64.7183 632.172C84.1372 624.388 116.078 613.951 169.667 613.951ZM759.933 760.949C741.16 763.098 721.395 764.739 700.652 765.792C719.037 765.132 738.733 763.578 759.933 760.949ZM783.267 721.814C716.235 721.814 671.146 734.565 630.933 752.487C635.746 752.645 640.608 752.726 645.522 752.726C726.621 752.726 794.634 741.782 849.391 727.448C831.19 724.098 809.253 721.814 783.267 721.814Z" fill="white"/>
<path d="M566.132 116.128C567.749 116.128 569.362 116.148 570.969 116.187C515.105 148.241 477.476 208.477 477.476 277.503C477.476 380.148 560.687 463.359 663.332 463.359C672.387 463.359 681.29 462.708 690 461.456C656.327 489.211 613.177 505.882 566.132 505.882C458.505 505.882 371.256 418.633 371.255 311.005C371.255 203.378 458.505 116.128 566.132 116.128Z" fill="#DEDEDE"/>
<defs>
<filter id="filter0_d_153_688" x="0.385986" y="4.38599" width="1023.23" height="1023.23" filterUnits="userSpaceOnUse" color-interpolation-filters="sRGB">
<feFlood flood-opacity="0" result="BackgroundImageFix"/>
<feColorMatrix in="SourceAlpha" type="matrix" values="0 0 0 0 0 0 0 0 0 0 0 0 0 0 0 0 0 0 127 0" result="hardAlpha"/>
<feOffset dy="4"/>
<feGaussianBlur stdDeviation="2"/>
<feComposite in2="hardAlpha" operator="out"/>
<feColorMatrix type="matrix" values="0 0 0 0 0 0 0 0 0 0 0 0 0 0 0 0 0 0 0.25 0"/>
<feBlend mode="normal" in2="BackgroundImageFix" result="effect1_dropShadow_153_688"/>
<feBlend mode="normal" in="SourceGraphic" in2="effect1_dropShadow_153_688" result="shape"/>
</filter>
</defs>
</svg>
