<svg width="161" height="56" viewBox="0 0 161 56" fill="none" xmlns="http://www.w3.org/2000/svg">
<path d="M44.8898 53.9176C44.1653 53.9176 43.5249 53.8182 42.9686 53.6193C42.4123 53.4228 41.9447 53.1328 41.5659 52.7493C41.1871 52.3658 40.9006 51.8958 40.7065 51.3395C40.5124 50.7831 40.4153 50.1463 40.4153 49.429C40.4153 48.7353 40.5136 48.1151 40.7101 47.5682C40.9089 47.0213 41.1966 46.5573 41.573 46.1761C41.9518 45.7926 42.4111 45.5002 42.9508 45.299C43.493 45.0978 44.1061 44.9972 44.7903 44.9972C45.4556 44.9972 46.038 45.1061 46.5375 45.3239C47.0394 45.5393 47.4584 45.8317 47.7946 46.201C48.1331 46.5679 48.3864 46.9811 48.5545 47.4403C48.725 47.8996 48.8102 48.3731 48.8102 48.8608C48.8102 49.2041 48.7936 49.5521 48.7605 49.9048C48.7274 50.2576 48.6575 50.5819 48.551 50.8778C48.4444 51.1714 48.2799 51.4081 48.0574 51.5881C47.8372 51.768 47.5389 51.858 47.1625 51.858C46.9968 51.858 46.8145 51.8319 46.6156 51.7798C46.4167 51.7277 46.2404 51.6413 46.0865 51.5206C45.9326 51.3999 45.8415 51.2377 45.8131 51.0341H45.7704C45.7136 51.1714 45.626 51.3016 45.5077 51.4247C45.3917 51.5478 45.239 51.6461 45.0496 51.7195C44.8625 51.7929 44.6341 51.8248 44.3642 51.8153C44.0564 51.8035 43.7854 51.7348 43.551 51.6094C43.3166 51.4815 43.1201 51.3087 42.9615 51.0909C42.8052 50.8707 42.6869 50.6162 42.6064 50.3274C42.5283 50.0362 42.4892 49.7225 42.4892 49.3864C42.4892 49.0668 42.5365 48.7744 42.6312 48.5092C42.7259 48.2441 42.8573 48.0121 43.0254 47.8132C43.1959 47.6143 43.3947 47.4557 43.622 47.3374C43.8516 47.2166 44.099 47.142 44.3642 47.1136C44.6009 47.09 44.8164 47.1006 45.0105 47.1456C45.2046 47.1882 45.3644 47.2533 45.4899 47.3409C45.6154 47.4261 45.6947 47.5208 45.7278 47.625H45.7704V47.2273H46.5233V50.4375C46.5233 50.6364 46.5789 50.8116 46.6902 50.9631C46.8015 51.1146 46.9636 51.1903 47.1767 51.1903C47.4182 51.1903 47.6028 51.1075 47.7307 50.9418C47.8609 50.776 47.9497 50.5204 47.997 50.1747C48.0467 49.8291 48.0716 49.3864 48.0716 48.8466C48.0716 48.5294 48.0278 48.2169 47.9402 47.9091C47.855 47.599 47.7248 47.3089 47.5496 47.0391C47.3767 46.7692 47.1578 46.5312 46.8926 46.3253C46.6274 46.1193 46.3161 45.9583 45.9587 45.8423C45.6035 45.724 45.1999 45.6648 44.7477 45.6648C44.1914 45.6648 43.693 45.7512 43.2527 45.924C42.8147 46.0945 42.4418 46.3442 42.1341 46.6733C41.8287 47 41.5955 47.3977 41.4345 47.8665C41.2759 48.3329 41.1966 48.8632 41.1966 49.4574C41.1966 50.0611 41.2759 50.5973 41.4345 51.0661C41.5955 51.5348 41.8322 51.9302 42.1447 52.2521C42.4596 52.5741 42.849 52.8179 43.3131 52.9837C43.7771 53.1518 44.3121 53.2358 44.9182 53.2358C45.1786 53.2358 45.4355 53.2109 45.6888 53.1612C45.9421 53.1115 46.1658 53.0571 46.3599 52.9979C46.5541 52.9387 46.6937 52.8949 46.779 52.8665L46.9778 53.5199C46.831 53.5814 46.6393 53.643 46.4025 53.7045C46.1682 53.7661 45.9172 53.817 45.6497 53.8572C45.3846 53.8975 45.1312 53.9176 44.8898 53.9176ZM44.4778 51.0909C44.7951 51.0909 45.0519 51.027 45.2484 50.8991C45.4449 50.7713 45.5881 50.5784 45.6781 50.3203C45.7681 50.0623 45.8131 49.7367 45.8131 49.3438C45.8131 48.946 45.7633 48.6359 45.6639 48.4134C45.5645 48.1908 45.4177 48.0346 45.2236 47.9446C45.0294 47.8546 44.7903 47.8097 44.5062 47.8097C44.2364 47.8097 44.0055 47.8807 43.8138 48.0227C43.6244 48.1624 43.4788 48.3494 43.377 48.5838C43.2775 48.8158 43.2278 49.0691 43.2278 49.3438C43.2278 49.6468 43.2681 49.9321 43.3486 50.1996C43.4291 50.4647 43.5605 50.6802 43.7427 50.8459C43.925 51.0092 44.1701 51.0909 44.4778 51.0909Z" fill="#5B5B5B"/>
<path d="M55.8503 48.291L55.3083 48.6279C54.8396 48.0062 54.2 47.6953 53.3894 47.6953C52.7416 47.6953 52.2029 47.9036 51.7732 48.3203C51.3468 48.737 51.1335 49.2432 51.1335 49.8389C51.1335 50.2262 51.2312 50.5908 51.4265 50.9326C51.6251 51.2744 51.8953 51.5397 52.2371 51.7285C52.5821 51.9173 52.9679 52.0117 53.3943 52.0117C54.1755 52.0117 54.8136 51.7008 55.3083 51.0791L55.8503 51.4355C55.5964 51.8164 55.2546 52.1126 54.825 52.3242C54.3985 52.5326 53.9119 52.6367 53.365 52.6367C52.5251 52.6367 51.8285 52.3698 51.2751 51.8359C50.7218 51.3021 50.4451 50.6527 50.4451 49.8877C50.4451 49.3734 50.5736 48.8965 50.8308 48.457C51.0912 48.0143 51.4477 47.6693 51.9001 47.4219C52.3526 47.1745 52.8588 47.0508 53.4187 47.0508C53.7703 47.0508 54.1088 47.1045 54.4343 47.2119C54.7631 47.3193 55.0414 47.4593 55.2693 47.6318C55.4972 47.8044 55.6908 48.0241 55.8503 48.291ZM59.6833 47.0508C60.5004 47.0508 61.1775 47.347 61.7146 47.9395C62.2029 48.4798 62.447 49.1195 62.447 49.8584C62.447 50.6006 62.1882 51.25 61.6707 51.8066C61.1563 52.36 60.4939 52.6367 59.6833 52.6367C58.8695 52.6367 58.2039 52.36 57.6863 51.8066C57.172 51.25 56.9148 50.6006 56.9148 49.8584C56.9148 49.1227 57.1589 48.4847 57.6472 47.9443C58.1843 47.3486 58.863 47.0508 59.6833 47.0508ZM59.6833 47.7197C59.1169 47.7197 58.6303 47.9297 58.2234 48.3496C57.8165 48.7695 57.613 49.2773 57.613 49.873C57.613 50.2572 57.7058 50.6152 57.8914 50.9473C58.0769 51.2793 58.3276 51.5365 58.6433 51.7188C58.9591 51.8978 59.3057 51.9873 59.6833 51.9873C60.061 51.9873 60.4076 51.8978 60.7234 51.7188C61.0391 51.5365 61.2898 51.2793 61.4753 50.9473C61.6609 50.6152 61.7537 50.2572 61.7537 49.873C61.7537 49.2773 61.5486 48.7695 61.1384 48.3496C60.7315 47.9297 60.2465 47.7197 59.6833 47.7197ZM63.7214 47.1875H64.405V48.1396C64.6785 47.7751 64.9812 47.5033 65.3132 47.3242C65.6453 47.1419 66.0066 47.0508 66.3972 47.0508C66.7944 47.0508 67.1459 47.1517 67.4519 47.3535C67.7611 47.5553 67.989 47.8271 68.1355 48.1689C68.282 48.5107 68.3552 49.043 68.3552 49.7656V52.5H67.6765V49.9658C67.6765 49.3538 67.6505 48.9453 67.5984 48.7402C67.517 48.3887 67.364 48.125 67.1394 47.9492C66.9148 47.7702 66.6218 47.6807 66.2605 47.6807C65.8471 47.6807 65.476 47.8174 65.1472 48.0908C64.8217 48.3643 64.6069 48.7028 64.5027 49.1064C64.4376 49.3701 64.405 49.8519 64.405 50.5518V52.5H63.7214V47.1875ZM75.1179 47.1875V52.5H74.4441V51.5869C74.1576 51.9352 73.8354 52.1973 73.4773 52.373C73.1225 52.5488 72.7335 52.6367 72.3103 52.6367C71.5583 52.6367 70.9154 52.3649 70.3816 51.8213C69.851 51.2744 69.5857 50.6104 69.5857 49.8291C69.5857 49.0641 69.8542 48.4098 70.3914 47.8662C70.9285 47.3226 71.5746 47.0508 72.3298 47.0508C72.766 47.0508 73.1599 47.1436 73.5115 47.3291C73.8663 47.5146 74.1772 47.793 74.4441 48.1641V47.1875H75.1179ZM72.3835 47.71C72.0027 47.71 71.6511 47.8044 71.3289 47.9932C71.0066 48.1787 70.7494 48.4408 70.5574 48.7793C70.3686 49.1178 70.2742 49.4759 70.2742 49.8535C70.2742 50.2279 70.3702 50.5859 70.5623 50.9277C70.7543 51.2695 71.0115 51.5365 71.3337 51.7285C71.6593 51.9173 72.0076 52.0117 72.3787 52.0117C72.753 52.0117 73.1078 51.9173 73.4431 51.7285C73.7784 51.5397 74.0356 51.2842 74.2146 50.9619C74.3969 50.6396 74.488 50.2767 74.488 49.873C74.488 49.2578 74.2846 48.7435 73.8777 48.3301C73.474 47.9167 72.976 47.71 72.3835 47.71ZM79.3318 47.7686L78.8923 48.2227C78.5278 47.8678 78.1713 47.6904 77.823 47.6904C77.6016 47.6904 77.4112 47.7637 77.2517 47.9102C77.0955 48.0566 77.0173 48.2275 77.0173 48.4229C77.0173 48.5954 77.0824 48.7598 77.2126 48.916C77.3429 49.0755 77.6163 49.2627 78.033 49.4775C78.5408 49.7412 78.8858 49.9951 79.0681 50.2393C79.2472 50.4867 79.3367 50.765 79.3367 51.0742C79.3367 51.5104 79.1837 51.8799 78.8777 52.1826C78.5717 52.4854 78.1892 52.6367 77.7302 52.6367C77.4242 52.6367 77.1313 52.57 76.8513 52.4365C76.5746 52.3031 76.3451 52.1191 76.1628 51.8848L76.5925 51.3965C76.9408 51.7904 77.3103 51.9873 77.7009 51.9873C77.9744 51.9873 78.2071 51.8994 78.3992 51.7236C78.5912 51.5479 78.6873 51.3411 78.6873 51.1035C78.6873 50.9082 78.6238 50.734 78.4968 50.5811C78.3699 50.4313 78.0834 50.2425 77.6375 50.0146C77.1589 49.7673 76.8334 49.5231 76.6609 49.2822C76.4884 49.0413 76.4021 48.7663 76.4021 48.457C76.4021 48.0534 76.5388 47.7181 76.8123 47.4512C77.0889 47.1842 77.4373 47.0508 77.8572 47.0508C78.3455 47.0508 78.837 47.29 79.3318 47.7686ZM80.5476 45.1367H81.2312V48.1396C81.5079 47.7751 81.8123 47.5033 82.1443 47.3242C82.4763 47.1419 82.836 47.0508 83.2234 47.0508C83.6205 47.0508 83.9721 47.1517 84.2781 47.3535C84.5873 47.5553 84.8152 47.8271 84.9617 48.1689C85.1082 48.5075 85.1814 49.0397 85.1814 49.7656V52.5H84.4978V49.9658C84.4978 49.3538 84.4734 48.9453 84.4246 48.7402C84.3399 48.3887 84.1853 48.125 83.9607 47.9492C83.7393 47.7702 83.448 47.6807 83.0867 47.6807C82.6733 47.6807 82.3022 47.8174 81.9734 48.0908C81.6479 48.3643 81.433 48.7028 81.3289 49.1064C81.2638 49.3669 81.2312 49.8486 81.2312 50.5518V52.5H80.5476V45.1367ZM91.9441 47.1875V52.5H91.2703V51.5869C90.9838 51.9352 90.6615 52.1973 90.3035 52.373C89.9486 52.5488 89.5597 52.6367 89.1365 52.6367C88.3845 52.6367 87.7416 52.3649 87.2078 51.8213C86.6772 51.2744 86.4119 50.6104 86.4119 49.8291C86.4119 49.0641 86.6804 48.4098 87.2175 47.8662C87.7546 47.3226 88.4008 47.0508 89.156 47.0508C89.5922 47.0508 89.9861 47.1436 90.3376 47.3291C90.6925 47.5146 91.0033 47.793 91.2703 48.1641V47.1875H91.9441ZM89.2097 47.71C88.8289 47.71 88.4773 47.8044 88.155 47.9932C87.8328 48.1787 87.5756 48.4408 87.3835 48.7793C87.1947 49.1178 87.1003 49.4759 87.1003 49.8535C87.1003 50.2279 87.1964 50.5859 87.3884 50.9277C87.5805 51.2695 87.8376 51.5365 88.1599 51.7285C88.4854 51.9173 88.8337 52.0117 89.2048 52.0117C89.5792 52.0117 89.934 51.9173 90.2693 51.7285C90.6046 51.5397 90.8617 51.2842 91.0408 50.9619C91.2231 50.6396 91.3142 50.2767 91.3142 49.873C91.3142 49.2578 91.1108 48.7435 90.7039 48.3301C90.3002 47.9167 89.8022 47.71 89.2097 47.71ZM93.3992 47.1875H94.0876V49.668C94.0876 50.2734 94.1202 50.6901 94.1853 50.918C94.283 51.2435 94.4685 51.5007 94.7419 51.6895C95.0186 51.8783 95.3474 51.9727 95.7283 51.9727C96.1091 51.9727 96.4314 51.8815 96.6951 51.6992C96.962 51.5137 97.1459 51.2712 97.2468 50.9717C97.3152 50.7666 97.3494 50.332 97.3494 49.668V47.1875H98.0476V49.7949C98.0476 50.5273 97.9613 51.0791 97.7888 51.4502C97.6195 51.8213 97.3624 52.1126 97.0173 52.3242C96.6755 52.5326 96.2458 52.6367 95.7283 52.6367C95.2107 52.6367 94.7778 52.5326 94.4294 52.3242C94.0844 52.1126 93.8256 51.8197 93.6531 51.4453C93.4838 51.0677 93.3992 50.5013 93.3992 49.7461V47.1875ZM104.146 47.1875H104.835V51.4209C104.835 52.1663 104.77 52.7116 104.639 53.0566C104.46 53.5449 104.149 53.9209 103.707 54.1846C103.264 54.4482 102.732 54.5801 102.11 54.5801C101.654 54.5801 101.244 54.515 100.88 54.3848C100.518 54.2578 100.224 54.0853 99.9958 53.8672C99.768 53.6523 99.558 53.3366 99.366 52.9199H100.108C100.31 53.2715 100.57 53.5319 100.889 53.7012C101.208 53.8704 101.604 53.9551 102.076 53.9551C102.541 53.9551 102.934 53.8672 103.253 53.6914C103.575 53.5189 103.804 53.3008 103.941 53.0371C104.078 52.7734 104.146 52.3486 104.146 51.7627V51.4893C103.889 51.8148 103.575 52.0654 103.204 52.2412C102.833 52.4137 102.439 52.5 102.022 52.5C101.534 52.5 101.075 52.3796 100.645 52.1387C100.216 51.8945 99.8835 51.5674 99.6492 51.1572C99.4148 50.7471 99.2976 50.2962 99.2976 49.8047C99.2976 49.3132 99.4197 48.8558 99.6638 48.4326C99.908 48.0062 100.245 47.6693 100.675 47.4219C101.108 47.1745 101.563 47.0508 102.042 47.0508C102.439 47.0508 102.808 47.1338 103.15 47.2998C103.495 47.4626 103.827 47.7327 104.146 48.1104V47.1875ZM102.13 47.71C101.742 47.71 101.383 47.8044 101.051 47.9932C100.719 48.1787 100.458 48.4375 100.269 48.7695C100.08 49.0983 99.9861 49.4548 99.9861 49.8389C99.9861 50.4215 100.181 50.9033 100.572 51.2842C100.963 51.665 101.469 51.8555 102.091 51.8555C102.719 51.8555 103.223 51.6667 103.604 51.2891C103.988 50.9115 104.18 50.415 104.18 49.7998C104.18 49.3994 104.093 49.043 103.917 48.7305C103.741 48.4147 103.492 48.1657 103.17 47.9834C102.847 47.8011 102.501 47.71 102.13 47.71ZM106.3 45.1367H106.983V48.1396C107.26 47.7751 107.564 47.5033 107.896 47.3242C108.228 47.1419 108.588 47.0508 108.975 47.0508C109.372 47.0508 109.724 47.1517 110.03 47.3535C110.339 47.5553 110.567 47.8271 110.714 48.1689C110.86 48.5075 110.933 49.0397 110.933 49.7656V52.5H110.25V49.9658C110.25 49.3538 110.225 48.9453 110.177 48.7402C110.092 48.3887 109.937 48.125 109.713 47.9492C109.491 47.7702 109.2 47.6807 108.839 47.6807C108.425 47.6807 108.054 47.8174 107.725 48.0908C107.4 48.3643 107.185 48.7028 107.081 49.1064C107.016 49.3669 106.983 49.8486 106.983 50.5518V52.5H106.3V45.1367Z" fill="#0088DD"/>
<path d="M112.301 45.1367H112.984V52.5H112.301V45.1367ZM119.698 47.1875V52.5H119.024V51.5869C118.738 51.9352 118.415 52.1973 118.057 52.373C117.703 52.5488 117.314 52.6367 116.89 52.6367C116.138 52.6367 115.496 52.3649 114.962 51.8213C114.431 51.2744 114.166 50.6104 114.166 49.8291C114.166 49.0641 114.434 48.4098 114.971 47.8662C115.509 47.3226 116.155 47.0508 116.91 47.0508C117.346 47.0508 117.74 47.1436 118.092 47.3291C118.446 47.5146 118.757 47.793 119.024 48.1641V47.1875H119.698ZM116.964 47.71C116.583 47.71 116.231 47.8044 115.909 47.9932C115.587 48.1787 115.33 48.4408 115.137 48.7793C114.949 49.1178 114.854 49.4759 114.854 49.8535C114.854 50.2279 114.95 50.5859 115.142 50.9277C115.334 51.2695 115.592 51.5365 115.914 51.7285C116.239 51.9173 116.588 52.0117 116.959 52.0117C117.333 52.0117 117.688 51.9173 118.023 51.7285C118.358 51.5397 118.616 51.2842 118.795 50.9619C118.977 50.6396 119.068 50.2767 119.068 49.873C119.068 49.2578 118.865 48.7435 118.458 48.3301C118.054 47.9167 117.556 47.71 116.964 47.71ZM121.236 45.1367H121.925V49.3262L124.381 47.1875H125.386L122.471 49.7217L125.557 52.5H124.591L121.925 50.1123V52.5H121.236V45.1367ZM130.733 50.7373L131.309 51.04C131.121 51.4111 130.902 51.7106 130.655 51.9385C130.408 52.1663 130.129 52.3405 129.82 52.4609C129.511 52.5781 129.161 52.6367 128.77 52.6367C127.904 52.6367 127.227 52.3535 126.739 51.7871C126.251 51.2174 126.007 50.5745 126.007 49.8584C126.007 49.1846 126.213 48.584 126.627 48.0566C127.151 47.3861 127.852 47.0508 128.731 47.0508C129.636 47.0508 130.359 47.3942 130.899 48.0811C131.283 48.5661 131.479 49.1715 131.485 49.8975H126.71C126.723 50.516 126.92 51.0238 127.301 51.4209C127.681 51.8148 128.152 52.0117 128.712 52.0117C128.982 52.0117 129.244 51.9645 129.498 51.8701C129.755 51.7757 129.973 51.6504 130.152 51.4941C130.331 51.3379 130.525 51.0856 130.733 50.7373ZM130.733 49.3066C130.642 48.9421 130.509 48.6507 130.333 48.4326C130.16 48.2145 129.931 48.0387 129.644 47.9053C129.358 47.7718 129.057 47.7051 128.741 47.7051C128.22 47.7051 127.773 47.8727 127.398 48.208C127.125 48.4521 126.918 48.8184 126.778 49.3066H130.733ZM135.435 47.7686L134.996 48.2227C134.631 47.8678 134.275 47.6904 133.927 47.6904C133.705 47.6904 133.515 47.7637 133.355 47.9102C133.199 48.0566 133.121 48.2275 133.121 48.4229C133.121 48.5954 133.186 48.7598 133.316 48.916C133.446 49.0755 133.72 49.2627 134.136 49.4775C134.644 49.7412 134.989 49.9951 135.172 50.2393C135.351 50.4867 135.44 50.765 135.44 51.0742C135.44 51.5104 135.287 51.8799 134.981 52.1826C134.675 52.4854 134.293 52.6367 133.834 52.6367C133.528 52.6367 133.235 52.57 132.955 52.4365C132.678 52.3031 132.449 52.1191 132.266 51.8848L132.696 51.3965C133.044 51.7904 133.414 51.9873 133.804 51.9873C134.078 51.9873 134.311 51.8994 134.503 51.7236C134.695 51.5479 134.791 51.3411 134.791 51.1035C134.791 50.9082 134.727 50.734 134.6 50.5811C134.473 50.4313 134.187 50.2425 133.741 50.0146C133.262 49.7673 132.937 49.5231 132.764 49.2822C132.592 49.0413 132.506 48.7663 132.506 48.457C132.506 48.0534 132.642 47.7181 132.916 47.4512C133.192 47.1842 133.541 47.0508 133.961 47.0508C134.449 47.0508 134.941 47.29 135.435 47.7686Z" fill="#BCBCBC"/>
<path d="M137.1 51.6406C137.233 51.6406 137.346 51.6875 137.44 51.7812C137.534 51.875 137.581 51.9896 137.581 52.125C137.581 52.2578 137.534 52.3724 137.44 52.4688C137.346 52.5625 137.233 52.6094 137.1 52.6094C136.968 52.6094 136.854 52.5625 136.76 52.4688C136.667 52.3724 136.62 52.2578 136.62 52.125C136.62 51.9896 136.667 51.875 136.76 51.7812C136.854 51.6875 136.968 51.6406 137.1 51.6406ZM142.843 49.1328L142.409 49.4023C142.034 48.9049 141.522 48.6562 140.874 48.6562C140.356 48.6562 139.925 48.8229 139.581 49.1562C139.24 49.4896 139.069 49.8945 139.069 50.3711C139.069 50.681 139.147 50.9727 139.303 51.2461C139.462 51.5195 139.678 51.7318 139.952 51.8828C140.228 52.0339 140.537 52.1094 140.878 52.1094C141.503 52.1094 142.013 51.8607 142.409 51.3633L142.843 51.6484C142.639 51.9531 142.366 52.1901 142.022 52.3594C141.681 52.526 141.292 52.6094 140.854 52.6094C140.182 52.6094 139.625 52.3958 139.182 51.9688C138.74 51.5417 138.518 51.0221 138.518 50.4102C138.518 49.9987 138.621 49.6172 138.827 49.2656C139.035 48.9115 139.32 48.6354 139.682 48.4375C140.044 48.2396 140.449 48.1406 140.897 48.1406C141.178 48.1406 141.449 48.1836 141.71 48.2695C141.973 48.3555 142.195 48.4674 142.378 48.6055C142.56 48.7435 142.715 48.9193 142.843 49.1328ZM145.909 48.1406C146.563 48.1406 147.104 48.3776 147.534 48.8516C147.925 49.2839 148.12 49.7956 148.12 50.3867C148.12 50.9805 147.913 51.5 147.499 51.9453C147.087 52.388 146.557 52.6094 145.909 52.6094C145.258 52.6094 144.725 52.388 144.311 51.9453C143.9 51.5 143.694 50.9805 143.694 50.3867C143.694 49.7982 143.889 49.2878 144.28 48.8555C144.71 48.3789 145.253 48.1406 145.909 48.1406ZM145.909 48.6758C145.456 48.6758 145.066 48.8438 144.741 49.1797C144.415 49.5156 144.253 49.9219 144.253 50.3984C144.253 50.7057 144.327 50.9922 144.475 51.2578C144.624 51.5234 144.824 51.7292 145.077 51.875C145.33 52.0182 145.607 52.0898 145.909 52.0898C146.211 52.0898 146.488 52.0182 146.741 51.875C146.994 51.7292 147.194 51.5234 147.343 51.2578C147.491 50.9922 147.565 50.7057 147.565 50.3984C147.565 49.9219 147.401 49.5156 147.073 49.1797C146.747 48.8438 146.359 48.6758 145.909 48.6758ZM149.135 48.25H149.678V48.9844C149.869 48.7135 150.064 48.5156 150.264 48.3906C150.54 48.224 150.831 48.1406 151.135 48.1406C151.341 48.1406 151.537 48.181 151.721 48.2617C151.906 48.3424 152.057 48.4505 152.175 48.5859C152.292 48.7188 152.393 48.9102 152.479 49.1602C152.662 48.8268 152.889 48.5742 153.163 48.4023C153.436 48.2279 153.731 48.1406 154.046 48.1406C154.34 48.1406 154.599 48.2148 154.823 48.3633C155.05 48.5117 155.218 48.7188 155.327 48.9844C155.436 49.25 155.491 49.6484 155.491 50.1797V52.5H154.932V50.1797C154.932 49.724 154.9 49.4115 154.835 49.2422C154.77 49.0703 154.658 48.9323 154.499 48.8281C154.343 48.724 154.155 48.6719 153.936 48.6719C153.671 48.6719 153.427 48.75 153.206 48.9062C152.987 49.0625 152.827 49.2708 152.725 49.5312C152.624 49.7917 152.573 50.2266 152.573 50.8359V52.5H152.03V50.3242C152.03 49.8112 151.997 49.4635 151.932 49.2812C151.87 49.0964 151.759 48.9492 151.6 48.8398C151.441 48.7279 151.253 48.6719 151.034 48.6719C150.781 48.6719 150.544 48.7487 150.323 48.9023C150.104 49.0534 149.941 49.2578 149.835 49.5156C149.731 49.7734 149.678 50.168 149.678 50.6992V52.5H149.135V48.25Z" fill="#5B5B5B"/>
<path d="M14.6284 47.8469C13.9884 47.5909 13.327 47.3136 12.6444 47.0149C12.0044 46.7163 11.3857 46.2683 10.7884 45.6709C10.2337 45.1163 9.74304 44.3269 9.31637 43.3029C8.88971 42.0656 8.59104 40.8496 8.42037 39.6549C8.29237 38.4603 8.24971 37.0736 8.29237 35.4949C8.29237 33.2763 8.44171 31.3563 8.74037 29.7349C9.08171 28.0709 9.59371 26.3856 10.2764 24.6789C10.3617 24.5509 10.511 24.1883 10.7244 23.5909C10.9804 22.9509 11.2577 22.2683 11.5564 21.5429C11.8977 20.8176 12.1537 20.2629 12.3244 19.8789C12.6657 19.1536 13.1777 18.1936 13.8604 16.9989C14.5857 15.7616 15.3537 14.5669 16.1644 13.4149C17.4017 11.5803 18.4257 10.1296 19.2364 9.06294C20.047 7.99627 20.815 7.10027 21.5404 6.37494C22.2657 5.6496 23.0764 4.96694 23.9724 4.32694C24.911 3.64427 26.1057 2.81227 27.5564 1.83094C28.495 1.14827 29.519 0.785605 30.6284 0.742939C31.7804 0.70027 32.847 0.95627 33.8284 1.51094C34.8097 2.02294 35.535 2.79094 36.0044 3.81494C36.4737 4.71094 36.7084 5.79894 36.7084 7.07894C36.7084 8.31627 36.5164 9.63894 36.1324 11.0469C35.7484 12.4123 35.215 13.7136 34.5324 14.9509C33.8497 16.1883 33.0604 17.2123 32.1644 18.0229C31.6097 18.5349 31.0977 18.7269 30.6284 18.5989C30.2017 18.4709 29.6897 18.1296 29.0924 17.5749C28.7084 16.8496 28.495 16.4229 28.4524 16.2949C28.4524 16.1669 28.5377 16.0816 28.7084 16.0389C28.9644 15.7403 29.3057 15.2283 29.7324 14.5029C30.159 13.7776 30.5857 13.0096 31.0124 12.1989C31.439 11.3456 31.7377 10.6629 31.9084 10.1509C32.2497 8.35894 32.4844 7.10027 32.6124 6.37494C32.7404 5.60694 32.6124 5.03094 32.2284 4.64694C32.0577 4.47627 31.8017 4.41227 31.4604 4.45494C31.1617 4.4976 30.6497 4.71094 29.9244 5.09494C28.943 5.5216 27.663 6.4816 26.0844 7.97494C24.5057 9.4256 23.055 11.0469 21.7324 12.8389C20.0257 15.1003 18.5964 17.1056 17.4444 18.8549C16.2924 20.6043 15.4177 22.3963 14.8204 24.2309C14.735 24.4016 14.5857 24.7216 14.3724 25.1909C14.2017 25.6603 14.1164 25.8949 14.1164 25.8949C14.159 26.0656 14.095 26.4923 13.9244 27.1749C13.7537 27.8149 13.5617 28.3696 13.3484 28.8389C12.879 30.8016 12.6017 32.8496 12.5164 34.9829C12.431 37.0736 12.5377 38.9296 12.8364 40.5509C13.1777 42.1723 13.6684 43.3029 14.3084 43.9429C14.863 44.3269 15.6097 44.4549 16.5484 44.3269C17.5297 44.1989 18.639 43.9003 19.8764 43.4309C21.1137 42.9616 22.3724 42.4496 23.6524 41.8949C24.6764 41.4683 25.615 40.9989 26.4684 40.4869C27.3217 39.9749 27.9617 39.5269 28.3884 39.1429C28.7297 38.8869 29.1564 38.6309 29.6684 38.3749C30.223 38.0763 30.6924 37.9269 31.0764 37.9269C31.6737 37.7136 32.015 37.6283 32.1004 37.6709C32.1857 37.7136 32.2284 37.9056 32.2284 38.2469C32.2284 38.8443 31.887 39.5056 31.2044 40.2309C30.5644 40.9563 29.7324 41.6176 28.7084 42.2149C28.367 42.5563 27.919 42.9189 27.3644 43.3029C26.8097 43.6869 26.2337 43.9856 25.6364 44.1989C24.7404 44.8816 23.631 45.5429 22.3084 46.1829C20.9857 46.8229 19.6417 47.3136 18.2764 47.6549C16.9537 47.9963 15.7377 48.0603 14.6284 47.8469ZM41.9359 43.3029C41.3812 43.3029 40.9332 43.1963 40.5919 42.9829C40.2932 42.7696 39.9092 42.4709 39.4399 42.0869C38.6292 41.2336 38.0532 40.4229 37.7119 39.6549C37.3705 38.8443 37.2639 38.0763 37.3919 37.3509C37.5199 37.0096 37.5625 36.6896 37.5199 36.3909C37.5199 36.0496 37.5199 35.8789 37.5199 35.8789C37.3065 35.6656 37.2425 35.5376 37.3279 35.4949C37.4132 35.4096 37.4985 35.2816 37.5839 35.1109C37.8399 35.1109 37.9252 34.8763 37.8399 34.4069C37.7545 34.0656 37.9252 33.3189 38.3519 32.1669C38.7785 31.0149 39.3119 29.9269 39.9519 28.9029C40.2079 28.4763 40.5919 27.9216 41.1039 27.2389C41.6159 26.5136 42.1705 25.8096 42.7679 25.1269C43.4079 24.4016 43.9839 23.8256 44.4959 23.3989C45.5625 22.5029 46.5012 21.8416 47.3119 21.4149C48.1225 20.9883 48.9972 20.6683 49.9359 20.4549C50.8745 20.2416 51.5145 20.1349 51.8559 20.1349C52.2399 20.1349 52.7519 20.4763 53.3919 21.1589C54.3732 21.5856 55.0772 22.0976 55.5039 22.6949C55.9732 23.2923 56.2719 24.1669 56.3999 25.3189C56.5279 26.5989 56.4212 28.0709 56.0799 29.7349C55.7812 31.3563 54.7785 33.3829 53.0719 35.8149C52.0052 37.3509 51.0239 38.5029 50.1279 39.2709C49.2319 39.9963 48.1652 40.7216 46.9279 41.4469C46.0319 42.0443 45.2212 42.4923 44.4959 42.7909C43.7705 43.0469 42.9172 43.2176 41.9359 43.3029ZM48.0799 36.5189C49.1039 35.3669 49.9145 34.2789 50.5119 33.2549C51.1519 32.2309 51.7492 30.9296 52.3039 29.3509C52.4745 28.8816 52.5812 28.3056 52.6239 27.6229C52.6665 26.8976 52.6452 26.2363 52.5599 25.6389C52.5172 24.9989 52.3679 24.6363 52.1119 24.5509C51.5999 24.2523 50.9812 24.1669 50.2559 24.2949C49.5305 24.3803 48.7412 24.7856 47.8879 25.5109C46.5652 26.6203 45.4132 28.0069 44.4319 29.6709C43.4505 31.2923 42.4905 33.1483 41.5519 35.2389C40.9119 36.7749 40.7625 38.0123 41.1039 38.9509C41.4879 39.8469 42.2772 40.1669 43.4719 39.9109C44.7092 39.6123 46.2452 38.4816 48.0799 36.5189ZM75.1224 44.1349C74.8237 44.3056 74.4184 44.2416 73.9064 43.9429C73.437 43.6443 72.9677 43.1963 72.4984 42.5989C72.1997 42.0869 71.9864 41.5323 71.8584 40.9349C71.773 40.3376 71.7304 39.5056 71.7304 38.4389C71.773 37.5856 71.7304 37.0309 71.6024 36.7749C71.517 36.5189 71.2824 36.5616 70.8984 36.9029C70.5144 37.2016 69.853 37.8203 68.9144 38.7589C67.8477 39.8256 66.8237 40.6576 65.8424 41.2549C64.9037 41.8523 64.1357 42.1296 63.5384 42.0869C63.2397 42.0869 62.8984 41.9376 62.5144 41.6389C62.173 41.2976 61.853 40.8923 61.5544 40.4229C61.2557 39.9109 60.9997 39.3989 60.7864 38.8869C60.5304 37.9483 60.4877 36.7536 60.6584 35.3029C60.8717 33.8096 61.213 32.2523 61.6824 30.6309C62.1517 29.0096 62.685 27.4736 63.2824 26.0229C63.9224 24.5723 64.5624 23.3989 65.2024 22.5029C65.885 21.6069 66.4824 21.1589 66.9944 21.1589C67.3357 21.1589 67.6344 21.3296 67.8904 21.6709C68.189 22.0123 68.4877 22.5456 68.7864 23.2709C68.957 23.5696 69.021 23.8256 68.9784 24.0389C68.9784 24.2523 68.8077 24.5083 68.4664 24.8069C68.0824 25.3189 67.6344 26.0869 67.1224 27.1109C66.653 28.1349 66.1837 29.2443 65.7144 30.4389C65.2877 31.6336 64.9037 32.7856 64.5624 33.8949C64.221 35.0043 63.9864 35.9216 63.8584 36.6469C63.7304 37.3296 63.7517 37.6709 63.9224 37.6709C64.5197 37.6709 65.2237 37.4363 66.0344 36.9669C66.8877 36.4549 67.6984 35.8363 68.4664 35.1109C69.3624 34.2149 70.1517 33.2336 70.8344 32.1669C71.5597 31.1003 72.285 29.9696 73.0104 28.7749C73.565 27.9216 74.141 26.9829 74.7384 25.9589C75.3784 24.9349 75.7837 24.2096 75.9544 23.7829C76.5517 22.6736 76.9997 21.9269 77.2984 21.5429C77.597 21.1163 77.9597 20.8389 78.3864 20.7109C78.5997 20.7109 78.7917 20.7109 78.9624 20.7109C79.1757 20.7109 79.2824 20.7109 79.2824 20.7109C79.5384 20.7536 79.837 20.9456 80.1784 21.2869C80.5197 21.4576 80.7117 21.6283 80.7544 21.7989C80.797 21.9269 80.8184 22.0976 80.8184 22.3109C80.6477 22.7376 80.3704 23.3776 79.9864 24.2309C79.645 25.0416 79.389 25.6389 79.2184 26.0229C78.4077 27.8576 77.597 29.6709 76.7864 31.4629C76.0184 33.2123 75.4637 35.0043 75.1224 36.8389C75.037 37.4363 75.0157 38.1403 75.0584 38.9509C75.1437 39.7189 75.2717 40.2736 75.4424 40.6149C75.5704 40.8709 75.7197 41.1696 75.8904 41.5109C76.1037 41.8096 76.3384 42.0656 76.5944 42.2789C76.9784 42.5349 77.0424 42.8123 76.7864 43.1109C76.573 43.4096 76.2744 43.6656 75.8904 43.8789C75.5064 44.0496 75.2504 44.1349 75.1224 44.1349ZM84.9859 42.0229C84.6019 41.7243 84.3245 41.4256 84.1539 41.1269C84.0259 40.8283 84.0259 40.2523 84.1539 39.3989C84.2819 38.2043 84.4525 37.1589 84.6659 36.2629C84.8792 35.3243 85.1352 34.2576 85.4339 33.0629C85.5192 32.5509 85.7539 31.6763 86.1379 30.4389C86.5645 29.2016 87.0765 27.8576 87.6739 26.4069C88.2712 24.9563 88.8685 23.5909 89.4659 22.3109C90.0632 20.9883 90.5752 20.0069 91.0019 19.3669C91.3432 19.1109 91.7485 19.0043 92.2179 19.0469C92.7299 19.0896 93.1565 19.2816 93.4979 19.6229C93.9672 20.0069 94.0312 20.6896 93.6899 21.6709C93.3912 22.6096 92.7512 24.1029 91.7699 26.1509C91.2579 27.3029 90.8739 28.1776 90.6179 28.7749C90.3619 29.3296 90.2552 29.6709 90.2979 29.7989C90.3405 29.8843 90.5325 29.8203 90.8739 29.6069C91.1299 29.1376 91.5992 28.6043 92.2819 28.0069C92.9645 27.3669 93.6899 26.7483 94.4579 26.1509C95.2259 25.5536 95.9512 25.0203 96.6339 24.5509C97.3165 24.0816 97.7859 23.7829 98.0419 23.6549C98.3832 23.4416 98.7672 23.2709 99.1939 23.1429C99.6632 22.9723 99.9832 22.8443 100.154 22.7589C101.135 22.2896 102.138 22.1189 103.162 22.2469C104.186 22.3749 104.826 22.7589 105.082 23.3989C105.125 23.7403 105.253 23.9963 105.466 24.1669C105.722 24.3376 105.85 24.4229 105.85 24.4229C106.021 24.4229 106.106 24.4869 106.106 24.6149C106.149 24.7429 106.17 24.8069 106.17 24.8069C106.17 25.1056 105.935 25.2976 105.466 25.3829C105.039 25.4256 104.485 25.4683 103.802 25.5109C103.247 25.5536 102.757 25.6603 102.33 25.8309C101.903 26.0016 101.391 26.2149 100.794 26.4709C99.1725 27.4096 97.6152 28.3269 96.1219 29.2229C94.6712 30.1189 93.2632 31.3136 91.8979 32.8069C91.5992 33.1483 91.3005 33.5536 91.0019 34.0229C90.7032 34.4923 90.3832 35.0043 90.0419 35.5589C89.8285 35.7723 89.6152 36.2416 89.4019 36.9669C89.1885 37.6923 88.9965 38.3963 88.8259 39.0789C88.6979 39.7189 88.6339 40.1029 88.6339 40.2309C88.6339 40.2309 88.5699 40.4443 88.4419 40.8709C88.3139 41.2549 88.1005 41.6389 87.8019 42.0229C87.2899 42.7056 86.8632 43.0469 86.5219 43.0469C86.1805 43.0469 85.6685 42.7056 84.9859 42.0229ZM108.048 41.1269C107.878 41.1269 107.664 41.0843 107.408 40.9989C107.195 40.8709 107.088 40.8069 107.088 40.8069C107.088 40.6363 107.024 40.4229 106.896 40.1669C106.811 39.9109 106.768 39.6976 106.768 39.5269C106.47 39.3563 106.299 39.1856 106.256 39.0149C106.214 38.8016 106.278 38.4603 106.448 37.9909C106.704 37.5643 107.046 36.8816 107.472 35.9429C107.899 34.9616 108.347 33.9163 108.816 32.8069C109.286 31.6549 109.734 30.5243 110.16 29.4149C110.587 28.3056 110.95 27.3669 111.248 26.5989C111.547 25.7883 111.718 25.2976 111.76 25.1269C111.76 24.9563 111.824 24.7429 111.952 24.4869C112.08 24.2309 112.23 24.0176 112.4 23.8469C112.742 23.5483 113.104 23.5269 113.488 23.7829C113.872 23.9963 114.192 24.3803 114.448 24.9349C114.747 25.4469 114.896 26.0229 114.896 26.6629C114.896 26.9616 114.683 27.7296 114.256 28.9669C113.83 30.1616 113.254 31.5909 112.528 33.2549C111.846 34.9189 111.078 36.6043 110.224 38.3109C109.584 39.5483 109.179 40.3376 109.008 40.6789C108.838 40.9776 108.518 41.1269 108.048 41.1269ZM117.456 16.8709C116.944 16.8709 116.39 16.6789 115.792 16.2949C115.238 15.8683 114.747 15.3563 114.32 14.7589C113.936 14.1189 113.744 13.4789 113.744 12.8389C113.744 12.6256 113.872 12.3269 114.128 11.9429C114.384 11.5589 114.64 11.1749 114.896 10.7909C115.152 10.4069 115.28 10.1723 115.28 10.0869C115.622 10.0869 115.878 10.1083 116.048 10.1509C116.262 10.1509 116.518 10.2363 116.816 10.4069C117.286 11.4736 117.862 12.3483 118.544 13.0309C119.27 13.7136 119.632 14.2896 119.632 14.7589C119.632 15.6976 119.547 16.2949 119.376 16.5509C119.206 16.7643 118.566 16.8709 117.456 16.8709ZM130.034 42.0229C129.138 42.7909 128.093 43.2389 126.898 43.3669C125.746 43.4949 124.615 43.3243 123.506 42.8549C122.397 42.3429 121.479 41.5749 120.754 40.5509C120.029 39.6123 119.559 38.5456 119.346 37.3509C119.133 36.1136 119.111 34.5136 119.282 32.5509C119.41 30.8869 119.943 29.2229 120.882 27.5589C121.821 25.8523 122.951 24.3376 124.274 23.0149C125.639 21.6923 126.983 20.7749 128.306 20.2629C128.946 19.8363 129.479 19.6443 129.906 19.6869C130.375 19.6869 131.079 19.7296 132.018 19.8149C132.999 19.9429 133.725 20.1349 134.194 20.3909C134.706 20.6469 135.111 20.9883 135.41 21.4149C136.05 22.0549 136.477 22.6949 136.69 23.3349C136.903 23.9323 137.01 24.5296 137.01 25.1269C136.839 26.0656 136.199 27.2176 135.09 28.5829C134.023 29.9056 132.615 30.9936 130.866 31.8469C129.927 32.1456 128.903 32.2736 127.794 32.2309C126.685 32.1883 125.767 31.9109 125.042 31.3989C124.231 31.0576 123.698 31.1216 123.442 31.5909C123.186 32.0176 122.951 33.0843 122.738 34.7909C122.567 36.4123 122.695 37.6069 123.122 38.3749C123.549 39.1003 124.125 39.5269 124.85 39.6549C125.703 39.8256 126.365 39.9536 126.834 40.0389C127.346 40.0816 127.965 39.8896 128.69 39.4629C129.373 39.0363 129.799 38.8016 129.97 38.7589C130.141 38.6736 130.269 38.5883 130.354 38.5029C130.482 38.3749 130.759 38.0976 131.186 37.6709C131.485 37.3723 131.719 37.1589 131.89 37.0309C132.061 36.8603 132.253 36.7749 132.466 36.7749C132.679 36.7749 132.871 36.8816 133.042 37.0949C133.213 37.2656 133.383 37.3936 133.554 37.4789C133.981 37.4789 134.066 37.7349 133.81 38.2469C133.597 38.7589 133.149 39.3776 132.466 40.1029C131.783 40.7856 130.973 41.4256 130.034 42.0229ZM129.97 28.4549C130.439 28.2416 130.93 27.9429 131.442 27.5589C131.954 27.1323 132.381 26.6843 132.722 26.2149C133.106 25.7029 133.298 25.2763 133.298 24.9349C133.298 24.3376 133.021 23.8469 132.466 23.4629C131.911 23.0363 131.079 22.9723 129.97 23.2709C129.501 23.3989 128.967 23.7189 128.37 24.2309C127.773 24.7003 127.197 25.2336 126.642 25.8309C126.13 26.4283 125.703 26.9616 125.362 27.4309C125.063 27.9003 124.957 28.1776 125.042 28.2629C125.17 28.4763 125.533 28.6469 126.13 28.7749C126.727 28.8603 127.389 28.8816 128.114 28.8389C128.882 28.7963 129.501 28.6683 129.97 28.4549ZM143.486 42.2789C143.358 42.3216 143.145 42.3003 142.846 42.2149C142.548 42.1296 142.249 42.0229 141.95 41.8949C141.652 41.7669 141.46 41.6603 141.374 41.5749C141.204 41.4043 141.033 41.1483 140.862 40.8069C140.734 40.4656 140.734 39.9749 140.862 39.3349C140.99 38.6523 141.417 37.7776 142.142 36.7109C142.356 36.2843 142.612 35.6443 142.91 34.7909C143.209 33.9376 143.508 33.0416 143.806 32.1029C144.148 31.1216 144.446 30.2469 144.702 29.4789C145.001 28.7109 145.214 28.1776 145.342 27.8789C145.428 27.1536 145.385 26.6416 145.214 26.3429C145.086 26.0016 144.724 25.8096 144.126 25.7669C143.7 25.7669 143.358 25.7243 143.102 25.6389C142.889 25.5536 142.782 25.1269 142.782 24.3589C142.868 23.7616 143.017 23.3563 143.23 23.1429C143.486 22.8869 143.828 22.6096 144.254 22.3109C144.681 22.0976 145.108 21.9483 145.534 21.8629C146.004 21.7776 146.452 21.7563 146.878 21.7989C147.305 21.8416 147.646 21.9909 147.902 22.2469C148.201 22.4176 148.393 22.8016 148.478 23.3989C148.564 23.9536 148.606 24.5296 148.606 25.1269C148.649 25.7243 148.692 26.1723 148.734 26.4709C149.161 26.1296 149.737 25.6603 150.462 25.0629C151.23 24.4229 151.892 23.8256 152.446 23.2709C153.129 22.8016 153.94 22.3323 154.878 21.8629C155.817 21.3509 156.5 21.0949 156.926 21.0949C157.396 21.0949 157.865 21.2229 158.334 21.4789C158.804 21.6923 159.124 21.9696 159.294 22.3109C159.721 23.0363 159.913 23.6763 159.87 24.2309C159.87 24.7856 159.636 25.3616 159.166 25.9589C158.74 26.5136 158.206 26.8976 157.566 27.1109C156.969 27.3243 156.585 27.4309 156.414 27.4309C156.158 27.4309 155.838 27.2389 155.454 26.8549C155.07 26.4709 154.857 26.1509 154.814 25.8949C154.814 25.7669 154.537 25.8949 153.982 26.2789C153.47 26.6203 152.894 27.0683 152.254 27.6229C151.614 28.1349 151.081 28.6043 150.654 29.0309C149.929 29.9269 149.161 31.1429 148.35 32.6789C147.54 34.2149 146.58 36.0709 145.47 38.2469C144.958 39.3136 144.596 40.2309 144.382 40.9989C144.169 41.7243 143.87 42.1509 143.486 42.2789Z" fill="white"/>
<path d="M3.43837 10.6649C3.33571 10.6463 3.22837 10.5949 3.11637 10.5109C3.01371 10.4176 2.92037 10.3149 2.83637 10.2029C2.76171 10.0816 2.71037 9.97427 2.68237 9.88094C2.68237 9.86227 2.66837 9.83894 2.64037 9.81094C2.62171 9.78294 2.61237 9.76894 2.61237 9.76894C2.57504 9.74094 2.55171 9.61961 2.54237 9.40494C2.54237 9.18094 2.55637 8.93361 2.58437 8.66294C2.61237 8.39227 2.64504 8.17761 2.68237 8.01894C2.72904 7.86961 2.79904 7.66894 2.89237 7.41694C2.98571 7.15561 3.06504 6.92227 3.13037 6.71694L3.50837 5.90494L2.94837 5.75094C2.88304 5.73227 2.82704 5.69494 2.78037 5.63894C2.74304 5.58294 2.72437 5.53627 2.72437 5.49894C2.72437 5.42427 2.76637 5.33561 2.85037 5.23294C2.93437 5.12094 2.99504 5.06494 3.03237 5.06494C3.07904 5.07427 3.16304 5.07894 3.28437 5.07894C3.41504 5.07894 3.54104 5.07427 3.66237 5.06494C3.78371 5.05561 3.85837 5.04627 3.88637 5.03694C3.92371 5.01827 3.96104 4.99494 3.99837 4.96694C4.03571 4.92961 4.06371 4.87827 4.08237 4.81294C4.12904 4.71027 4.17104 4.61694 4.20837 4.53294C4.24571 4.43961 4.29704 4.33694 4.36237 4.22494C4.42771 4.10361 4.47904 4.00094 4.51637 3.91694C4.56304 3.83294 4.63304 3.71627 4.72637 3.56694C4.77304 3.50161 4.82437 3.42227 4.88037 3.32894C4.93637 3.23561 5.00637 3.15627 5.09037 3.09094C5.17437 3.01627 5.25837 2.98361 5.34237 2.99294C5.43571 2.99294 5.55237 3.05361 5.69237 3.17494C5.76704 3.26827 5.80904 3.33827 5.81837 3.38494C5.82771 3.43161 5.79037 3.52027 5.70637 3.65094C5.63171 3.80961 5.54304 3.96827 5.44037 4.12694C5.34704 4.28561 5.25837 4.44427 5.17437 4.60294C5.02504 4.80827 4.99704 4.92494 5.09037 4.95294C5.18371 4.98094 5.44504 4.96227 5.87437 4.89694C6.14504 4.85027 6.34104 4.86427 6.46237 4.93894C6.58371 5.00427 6.65371 5.11627 6.67237 5.27494C6.70037 5.49894 6.67704 5.63427 6.60237 5.68094C6.52771 5.72761 6.31304 5.75094 5.95837 5.75094C5.73437 5.78827 5.54304 5.81161 5.38437 5.82094C5.22571 5.82094 5.10904 5.82094 5.03437 5.82094C4.91304 5.83027 4.83371 5.83494 4.79637 5.83494C4.75904 5.83494 4.70304 5.84427 4.62837 5.86294C4.55371 5.88161 4.49771 5.91427 4.46037 5.96094C4.43237 5.99827 4.39971 6.05427 4.36237 6.12894C4.32504 6.16627 4.26904 6.26427 4.19437 6.42294C4.11971 6.58161 4.02637 6.75427 3.91437 6.94094C3.78371 7.33294 3.67171 7.72494 3.57837 8.11694C3.48504 8.49961 3.41037 8.87294 3.35437 9.23694C3.31704 9.47027 3.32171 9.63361 3.36837 9.72694C3.41504 9.81094 3.53637 9.86227 3.73237 9.88094C3.83504 9.89027 3.99837 9.89027 4.22237 9.88094C4.45571 9.86227 4.63771 9.83427 4.76837 9.79694C4.87104 9.75027 4.97837 9.70361 5.09037 9.65694C5.20237 9.60094 5.30504 9.54494 5.39837 9.48894C5.48237 9.44227 5.56637 9.39561 5.65037 9.34894C5.73437 9.29294 5.77637 9.26494 5.77637 9.26494C5.82304 9.19027 5.87437 9.16694 5.93037 9.19494C5.98637 9.22294 6.03304 9.29294 6.07037 9.40494C6.07037 9.51694 6.04704 9.63361 6.00037 9.75494C5.95371 9.87627 5.78104 10.0209 5.48237 10.1889C5.06237 10.4503 4.67504 10.6089 4.32037 10.6649C3.97504 10.7116 3.68104 10.7116 3.43837 10.6649ZM10.3971 10.3289C10.1638 10.4409 9.95381 10.4736 9.76714 10.4269C9.58047 10.3709 9.43114 10.2449 9.31914 10.0489C9.21647 9.85294 9.16514 9.60561 9.16514 9.30694C9.16514 9.20427 9.17914 9.05027 9.20714 8.84494C9.24447 8.63961 9.28647 8.42494 9.33314 8.20094C9.37981 7.96761 9.43114 7.76694 9.48714 7.59894C9.51514 7.51494 9.53381 7.44961 9.54314 7.40294C9.56181 7.35627 9.55247 7.33294 9.51514 7.33294C9.47781 7.33294 9.43114 7.35627 9.37514 7.40294C9.32847 7.44961 9.29114 7.48694 9.26314 7.51494C9.05781 7.68294 8.84314 7.88827 8.61914 8.13094C8.40447 8.37361 8.20381 8.62094 8.01714 8.87294C7.83047 9.11561 7.67647 9.33961 7.55514 9.54494C7.44314 9.75027 7.38714 9.89961 7.38714 9.99294C7.38714 10.1329 7.31714 10.2309 7.17714 10.2869C7.03714 10.3429 6.91581 10.3383 6.81314 10.2729C6.63581 10.1703 6.52381 10.0489 6.47714 9.90894C6.43981 9.75961 6.43514 9.51227 6.46314 9.16694C6.49114 8.72827 6.52847 8.33627 6.57514 7.99094C6.62181 7.64561 6.69647 7.27227 6.79914 6.87094C6.91114 6.46027 7.05581 5.96094 7.23314 5.37294C7.35447 5.04627 7.46647 4.73827 7.56914 4.44894C7.67181 4.15027 7.76047 3.89827 7.83514 3.69294C7.91914 3.48761 7.97047 3.36161 7.98914 3.31494C8.03581 3.26827 8.09647 3.15627 8.17114 2.97894C8.24581 2.79227 8.31114 2.60561 8.36714 2.41894C8.43247 2.23227 8.46514 2.12027 8.46514 2.08294C8.46514 2.00827 8.47914 1.94294 8.50714 1.88694C8.53514 1.82161 8.56781 1.77027 8.60514 1.73294C8.64247 1.69561 8.67514 1.66294 8.70314 1.63494C8.73114 1.60694 8.74514 1.59294 8.74514 1.59294C8.79181 1.59294 8.84781 1.60694 8.91314 1.63494C8.98781 1.66294 9.05781 1.70494 9.12314 1.76094C9.18847 1.80761 9.23047 1.86827 9.24914 1.94294C9.31447 2.07361 9.34714 2.20894 9.34714 2.34894C9.34714 2.47961 9.30514 2.64294 9.22114 2.83894C9.14647 3.03494 9.01581 3.30561 8.82914 3.65094C8.67981 3.94027 8.54447 4.23894 8.42314 4.54694C8.30181 4.85494 8.18514 5.17694 8.07314 5.51294C8.02647 5.65294 7.96114 5.84894 7.87714 6.10094C7.80247 6.35294 7.72314 6.61427 7.63914 6.88494C7.56447 7.15561 7.49914 7.39827 7.44314 7.61294C7.39647 7.81827 7.37314 7.94894 7.37314 8.00494C7.37314 8.07027 7.41047 8.10294 7.48514 8.10294C7.55981 8.09361 7.63447 8.03761 7.70914 7.93494C7.74647 7.86027 7.82581 7.76694 7.94714 7.65494C8.06847 7.54294 8.16647 7.45427 8.24114 7.38894C8.31581 7.32361 8.41847 7.23027 8.54914 7.10894C8.67981 6.98761 8.81981 6.86627 8.96914 6.74494C9.11847 6.61427 9.25847 6.50694 9.38914 6.42294C9.51981 6.32961 9.62247 6.28294 9.69714 6.28294C9.81847 6.28294 9.93047 6.32961 10.0331 6.42294C10.1358 6.50694 10.2058 6.60027 10.2431 6.70294C10.2711 6.73094 10.2991 6.76827 10.3271 6.81494C10.3551 6.85227 10.3738 6.88027 10.3831 6.89894C10.4298 6.93627 10.4298 7.09961 10.3831 7.38894C10.3458 7.66894 10.2525 8.03294 10.1031 8.48094C10.0191 8.82627 9.94914 9.12027 9.89314 9.36294C9.84647 9.59627 9.86047 9.71294 9.93514 9.71294C9.93514 9.71294 9.98181 9.68494 10.0751 9.62894C10.1778 9.57294 10.2851 9.51227 10.3971 9.44694C10.6678 9.26961 10.9011 9.16694 11.0971 9.13894C11.3025 9.10161 11.4051 9.13427 11.4051 9.23694C11.4051 9.27427 11.3911 9.31161 11.3631 9.34894C11.3351 9.37694 11.3211 9.40961 11.3211 9.44694C11.3211 9.44694 11.3211 9.45161 11.3211 9.46094C11.3211 9.46094 11.3211 9.47961 11.3211 9.51694C11.3211 9.53561 11.2605 9.61027 11.1391 9.74094C11.0178 9.86227 10.8825 9.98827 10.7331 10.1189C10.5931 10.2403 10.4811 10.3103 10.3971 10.3289ZM13.8286 10.2729C13.6326 10.4409 13.4039 10.5389 13.1426 10.5669C12.8906 10.5949 12.6432 10.5576 12.4006 10.4549C12.1579 10.3429 11.9572 10.1749 11.7986 9.95094C11.6399 9.74561 11.5372 9.51227 11.4906 9.25094C11.4439 8.98027 11.4392 8.63027 11.4766 8.20094C11.5046 7.83694 11.6212 7.47294 11.8266 7.10894C12.0319 6.73561 12.2792 6.40427 12.5686 6.11494C12.8672 5.82561 13.1612 5.62494 13.4506 5.51294C13.5906 5.41961 13.7072 5.37761 13.8006 5.38694C13.9032 5.38694 14.0572 5.39627 14.2626 5.41494C14.4772 5.44294 14.6359 5.48494 14.7386 5.54094C14.8506 5.59694 14.9392 5.67161 15.0046 5.76494C15.1446 5.90494 15.2379 6.04494 15.2846 6.18494C15.3312 6.31561 15.3546 6.44627 15.3546 6.57694C15.3172 6.78227 15.1772 7.03427 14.9346 7.33294C14.7012 7.62227 14.3932 7.86027 14.0106 8.04694C13.8052 8.11227 13.5812 8.14027 13.3386 8.13094C13.0959 8.12161 12.8952 8.06094 12.7366 7.94894C12.5592 7.87427 12.4426 7.88827 12.3866 7.99094C12.3306 8.08427 12.2792 8.31761 12.2326 8.69094C12.1952 9.04561 12.2232 9.30694 12.3166 9.47494C12.4099 9.63361 12.5359 9.72694 12.6946 9.75494C12.8812 9.79227 13.0259 9.82027 13.1286 9.83894C13.2406 9.84827 13.3759 9.80627 13.5346 9.71294C13.6839 9.61961 13.7772 9.56827 13.8146 9.55894C13.8519 9.54027 13.8799 9.52161 13.8986 9.50294C13.9266 9.47494 13.9872 9.41427 14.0806 9.32094C14.1459 9.25561 14.1972 9.20894 14.2346 9.18094C14.2719 9.14361 14.3139 9.12494 14.3606 9.12494C14.4072 9.12494 14.4492 9.14827 14.4866 9.19494C14.5239 9.23227 14.5612 9.26027 14.5986 9.27894C14.6919 9.27894 14.7106 9.33494 14.6546 9.44694C14.6079 9.55894 14.5099 9.69427 14.3606 9.85294C14.2112 10.0023 14.0339 10.1423 13.8286 10.2729ZM13.8146 7.30494C13.9172 7.25827 14.0246 7.19294 14.1366 7.10894C14.2486 7.01561 14.3419 6.91761 14.4166 6.81494C14.5006 6.70294 14.5426 6.60961 14.5426 6.53494C14.5426 6.40427 14.4819 6.29694 14.3606 6.21294C14.2392 6.11961 14.0572 6.10561 13.8146 6.17094C13.7119 6.19894 13.5952 6.26894 13.4646 6.38094C13.3339 6.48361 13.2079 6.60027 13.0866 6.73094C12.9746 6.86161 12.8812 6.97827 12.8066 7.08094C12.7412 7.18361 12.7179 7.24427 12.7366 7.26294C12.7646 7.30961 12.8439 7.34694 12.9746 7.37494C13.1052 7.39361 13.2499 7.39827 13.4086 7.38894C13.5766 7.37961 13.7119 7.35161 13.8146 7.30494Z" fill="white"/>
</svg>
