<?xml version="1.0" encoding="UTF-8" standalone="no"?>
<!DOCTYPE svg PUBLIC "-//W3C//DTD SVG 1.1//EN" "http://www.w3.org/Graphics/SVG/1.1/DTD/svg11.dtd">
<svg width="100%" height="100%" viewBox="0 0 2904 2244" version="1.1" xmlns="http://www.w3.org/2000/svg" xmlns:xlink="http://www.w3.org/1999/xlink" xml:space="preserve" xmlns:serif="http://www.serif.com/" style="fill-rule:evenodd;clip-rule:evenodd;stroke-linecap:round;stroke-linejoin:round;stroke-miterlimit:1.5;">
    <g id="roads">
        <path id="indian-run-court" serif:id="indian run court" d="M2346.25,1362.94C2368.3,1355.01 2351.51,1352.23 2403.37,1371.69C2431.68,1382.31 2437.39,1364.85 2470.46,1380.7C2523.93,1406.32 2527.01,1473.62 2519.64,1498.9C2515.44,1513.31 2499.17,1516.1 2479.62,1524.36C2471.96,1527.59 2468.9,1566.37 2428.22,1544.6" style="fill:none;stroke:#808080;stroke-width:10px;"/>
        <path id="conklin-lane" serif:id="conklin lane" d="M972.279,1287.16C972.279,1287.16 990.673,1279.73 1011.92,1253.24C1033.18,1226.75 1053.48,1210.14 1056.02,1208.82" style="fill:none;stroke:#808080;stroke-width:10px;"/>
        <path id="geronimo-path" serif:id="geronimo path" d="M1330.88,1732.12C1363.24,1780.62 1361.69,1805.33 1416.47,1809.49" style="fill:none;stroke:#808080;stroke-width:10px;"/>
        <path id="wappinger-court" serif:id="wappinger court" d="M1291.08,1141.55C1291.08,1141.55 1336.9,1087.07 1349.96,1078" style="fill:none;stroke:#808080;stroke-width:10px;"/>
        <path id="pikewood-lane" serif:id="pikewood lane" d="M1514.83,1254.72L1557.65,1212.95" style="fill:none;stroke:#808080;stroke-width:10px;"/>
        <path id="bobwood-lane" serif:id="bobwood lane" d="M1616.77,1337.63L1647.35,1289.91" style="fill:none;stroke:#808080;stroke-width:10px;"/>
        <path id="cowaw-road" serif:id="cowaw road" d="M1791.42,1285.88C1791.42,1285.88 1810.8,1322.18 1804.55,1344.07C1789.33,1397.36 1778.26,1395.51 1813.26,1447.16C1834,1477.76 1847.87,1507.15 1847.87,1507.15" style="fill:none;stroke:#808080;stroke-width:10px;"/>
        <path id="denege-circle" serif:id="denege circle" d="M1615.23,938.034C1601.55,931.237 1602.99,918.9 1595.88,890.439" style="fill:none;stroke:#808080;stroke-width:10px;"/>
        <path id="oak-lane" serif:id="oak lane" d="M1697.54,937.255C1671.62,966.604 1668.2,953.74 1636.69,946.257C1632.43,945.244 1615.27,938.052 1615.23,938.034" style="fill:none;stroke:#808080;stroke-width:10px;"/>
        <path id="water-lily-terrace" serif:id="water lily terrace" d="M1546.54,638.95C1546.54,638.95 1572.84,641.309 1603.94,736.476" style="fill:none;stroke:#808080;stroke-width:10px;"/>
        <path id="mohegan-trail" serif:id="mohegan trail" d="M1916.64,642.885C1916.64,642.885 2012.89,566.723 2098.36,578.988" style="fill:none;stroke:#808080;stroke-width:10px;"/>
        <path id="conashaugh-trail" serif:id="conashaugh trail" d="M1750.23,293.989C1750.23,293.989 1719.82,404.156 1716.33,418.452C1712.97,432.203 1702.86,463.318 1768.66,520.122C1788.41,537.174 1822.23,566.269 1836.82,574.784C1865.51,591.539 1893.75,604.925 1916.81,640.757C1934.24,667.834 1946.13,690.55 1962.76,713.544C1981.67,739.705 2012.2,770.29 2031.44,798.141C2051.7,827.445 2075.65,882.413 2075.65,882.413C2075.65,882.413 2089.33,894.431 2082.87,989.059C2093.92,1021.34 2088.04,1045.61 2096.22,1077.48C2105.07,1111.95 2136.14,1164.88 2149.65,1191.88C2157.32,1207.22 2165.98,1218.01 2176.24,1235.92C2226.84,1334.87 2296.16,1290.37 2346.72,1364.55C2357.14,1379.84 2359.37,1418.51 2348.7,1435.76C2336.2,1455.95 2325.73,1473.41 2305.81,1495.44C2289.66,1513.32 2276.7,1528.24 2267.97,1561.15C2262.48,1581.83 2262.75,1617.65 2260.8,1666.3C2260.26,1679.91 2243.36,1695.22 2214.53,1709.7C2165.55,1734.3 2106.5,1776.26 2083.95,1774.66C2059.81,1772.95 1996.4,1727.59 1949.78,1812.48C1941.81,1827 1885.13,1860.19 1865.95,1868.18" style="fill:none;stroke:#808080;stroke-width:10px;"/>
        <path id="philwood-lane" serif:id="philwood lane" d="M1184.59,863.633C1184.59,863.633 1129.83,945.16 1141.66,999.954C1153.49,1054.75 1192.6,1190.44 1205.93,1207.52C1235.13,1244.92 1325.49,1308.17 1360.02,1334.07C1384.39,1352.35 1482.21,1360.09 1517.65,1357.48C1540.47,1343.93 1555.29,1314.05 1555.29,1314.05" style="fill:none;stroke:#808080;stroke-width:10px;"/>
        <path id="seneca-drive" serif:id="seneca drive" d="M1346.67,232.793C1308.74,260.196 1231.17,278.528 1254.46,319.638C1316.11,363.006 1307.29,399.022 1335.11,421.349C1366.56,446.595 1390.6,506.412 1393.54,523.501C1398.22,550.726 1455.36,633.693 1339.79,826.711C1312,873.133 1288.42,920.304 1288.42,920.304C1288.42,920.304 1178.17,1048.12 1291.51,1140.38C1335.04,1175.82 1360.05,1183.1 1392.33,1207.83C1481.63,1276.23 1488.64,1222.1 1515.78,1257.19C1527.13,1278.31 1536.78,1298.42 1554.58,1312.61C1570.91,1325.62 1591.83,1331.59 1614.03,1338.21C1648.98,1348.63 1654.81,1395.83 1686.03,1413.11C1743.17,1444.75 1703.7,1505.46 1784.83,1525.69C1813.3,1532.8 1830.32,1520.06 1848.66,1506.14C1866,1500.56 1875.71,1474.05 1880.99,1429.08C1884.51,1399.18 1948.35,1423.57 1981.83,1387.97C2001.81,1348.32 2005.41,1339.17 2018.48,1315.45C2031.57,1291.67 2043.02,1257.31 2060.4,1245.32C2108.7,1212.02 2147.52,1251.28 2175.49,1236.58" style="fill:none;stroke:#808080;stroke-width:10px;"/>
        <path id="flatbrook-court" serif:id="flatbrook court" d="M2019.76,1314.3C2019.76,1314.3 2057.94,1333.48 2069.72,1357.64" style="fill:none;stroke:#808080;stroke-width:10px;"/>
        <path id="flatbrook-way" serif:id="flatbrook way" d="M1098.27,771.156C1098.27,771.156 1135.31,834.698 1186.76,864.222C1238.19,893.747 1262.44,909.85 1287.87,919.873C1322.69,933.601 1352.98,979.53 1542.25,895.712C1560.7,887.543 1596.39,889.248 1596.39,889.248C1596.39,889.248 1608.58,889.674 1613.79,891.122C1625.74,894.447 1650.51,902.424 1669.21,910.134C1681.97,915.398 1690.59,929.896 1699.89,939.447C1711.01,950.861 1724.37,964.754 1738.09,982.059C1762.52,1012.86 1766.38,1048.95 1781.98,1072.18C1841.74,1161.17 1795.56,1160.56 1885.87,1216.48C2000.34,1320.39 1978.17,1261.07 2019.01,1318.93" style="fill:none;stroke:#808080;stroke-width:10px;"/>
        <path id="overbrook-run" serif:id="overbrook run" d="M970.953,1069.13C970.953,1069.13 1052.57,921.086 1032.26,876.093C1002.74,810.738 1038.08,789.519 1098.71,773.268C1106.64,771.143 1130.82,740.87 1145.05,716.845C1158.44,694.254 1181.49,650.109 1181.49,650.109C1181.49,650.109 1208.72,596.462 1231.65,579.073C1254.58,561.684 1320.91,545.434 1320.91,545.434L1393.31,524.216C1393.31,524.216 1427.74,512.014 1444.89,505.726C1527.26,475.52 1519.58,470.571 1556.21,406.57C1569.19,383.883 1614.17,348.066 1651.04,378.125C1677.82,399.959 1689.65,413.327 1715.66,419.199C1758.75,428.924 1864.49,392.361 1864.49,392.361L1945.96,373.521" style="fill:none;stroke:#808080;stroke-width:10px;"/>
        <path id="cayuga-trail" serif:id="cayuga trail" d="M1241.74,775.514C1337.34,600.978 1351.62,637.513 1320.29,548.146C1310.85,521.205 1302.84,500.71 1295.83,484.904C1257.32,398.059 1248.99,452.729 1199.04,357.23" style="fill:none;stroke:#808080;stroke-width:10px;"/>
        <path id="senaca-court" serif:id="senaca court" d="M1329.25,417.343C1356.76,417.233 1378.65,418.303 1419.14,363.046" style="fill:none;stroke:#808080;stroke-width:10px;"/>
        <path id="gwinnet-road" serif:id="gwinnet road" d="M680.413,603.334C680.413,603.334 874.078,495.141 901.787,484.451C929.495,473.761 999.042,490.925 1037.35,499.989C1094.88,513.6 1124.63,514.135 1161.53,514.212C1194.67,514.281 1230.54,579.749 1230.54,579.749" style="fill:none;stroke:#808080;stroke-width:10px;"/>
        <path id="cree-trail" serif:id="cree trail" d="M1146.35,717.047L1339.75,828.322" style="fill:none;stroke:#808080;stroke-width:10px;"/>
        <path id="sandy-pine-trail" serif:id="sandy pine trail" d="M2085.8,458.45C2049.85,465.368 2032.32,467.25 1976.83,482.205C1859.37,495.418 1836.58,577.034 1836.58,577.034C1836.58,577.034 1824.64,620.814 1811.15,649.69C1799.22,675.232 1763.12,701.063 1776.4,728.445C1789.68,755.827 1797.48,762.464 1808.29,781.28C1824.24,809.039 1838.1,858.438 1855.97,870.117C1873.85,881.796 1912.62,894.764 1930.91,900.289C1964.28,910.371 1981.6,942.037 2074.24,882.335" style="fill:none;stroke:#808080;stroke-width:10px;"/>
        <path id="hay-road" serif:id="hay road" d="M2031.58,798.34C2079.94,759.319 2104.35,757.331 2099.87,578.842C2102.82,488.836 2097.96,516.578 2086.76,459.22C2075.12,399.646 2077.73,399.86 2069.87,331.424C2068.56,320.054 2031.75,291.482 2026.17,234.919" style="fill:none;stroke:#808080;stroke-width:10px;"/>
        <path id="oneida-way" serif:id="oneida way" d="M1309.47,1465.2C1270.99,1397.26 1236.46,1395.82 1198.15,1352.91C1153.98,1303.45 1133.23,1232.88 1117.92,1225.84C1083.62,1210.06 1077.06,1232.82 1051.84,1206.43C1025.61,1178.98 1024.28,1106.92 981.808,1075.85C930.12,1038.03 810.544,991.714 785.934,932.16C768.798,890.693 738.138,852.256 729.107,808.017C719.475,760.838 740.849,719.709 679.626,604.199C635.153,520.29 669.443,476.295 732.444,441.086C789.827,409.017 863.183,372.735 873.522,371.044C1042.24,343.448 1106.48,445.195 1198.51,357.429C1232.81,324.725 1251.9,317.873 1251.9,317.873" style="fill:none;stroke:#808080;stroke-width:10px;"/>
        <path id="braxton-way" serif:id="braxton way" d="M1031.16,876.065C1031.16,876.065 951.802,908.722 923.366,897.794C886.178,883.502 860.869,842.9 785.501,932.357" style="fill:none;stroke:#808080;stroke-width:10px;"/>
        <path id="iroquois-trail" serif:id="iroquois trail" d="M2083.62,983.314C2048.1,996.008 2073.33,1048.42 2052.04,1067.59C2042.28,1076.39 2002.06,1085.88 1956.29,1103.38C1870.24,1136.26 1902.36,1186.28 1887.98,1215.63C1881.23,1229.4 1866.67,1242.6 1851.68,1246.2C1824.57,1252.71 1822.68,1241.12 1789.01,1289.31C1744.49,1326.66 1721.95,1286.1 1693.58,1394.62C1687.29,1418.68 1664.28,1454.5 1639.21,1466.77C1613.56,1479.31 1589.54,1448.42 1538.59,1484.05C1514.63,1500.8 1359.67,1427.12 1310.97,1462.64C1278.57,1486.27 1250.63,1519.74 1220.35,1522.43C1186.74,1525.43 1151.43,1530.85 1094.05,1440.91C1020.6,1402.62 1012.61,1364.34 968.82,1282.75C928.304,1207.25 864.469,1103.96 864.469,1103.96" style="fill:none;stroke:#808080;stroke-width:10px;"/>
        <path id="middleton-drive" serif:id="middleton drive" d="M1414.91,1860.04C1414.91,1860.04 1414.21,1833.85 1415.91,1810.07C1417.32,1790.37 1470.78,1678.82 1494.29,1621.44C1511.94,1578.34 1548.36,1528.82 1532.97,1487.17" style="fill:none;stroke:#808080;stroke-width:10px;"/>
        <path id="walton-way" serif:id="walton way" d="M1633,1469.8C1638.81,1489.15 1633.8,1505.57 1635.34,1523.79C1637.87,1553.7 1646.52,1624.29 1728,1637.06" style="fill:none;stroke:#808080;stroke-width:10px;"/>
        <path id="pine-grove-circle" serif:id="pine grove circle" d="M1542.11,895.155C1541.78,896.445 1487.02,791.2 1603.1,736.304C1716.83,707.208 1747.79,801.871 1747.79,801.871" style="fill:none;stroke:#808080;stroke-width:10px;"/>
        <path id="pine-brook-lane" serif:id="pine brook lane" d="M1734.44,978.903C1734.44,978.903 1820.83,914.915 1853.6,870.893" style="fill:none;stroke:#808080;stroke-width:10px;"/>
        <path id="whipple-way" serif:id="whipple way" d="M1593.74,1832.97C1605.67,1810.16 1562.91,1716.01 1722.55,1738.69" style="fill:none;stroke:#808080;stroke-width:10px;"/>
        <path id="bennett-lane" serif:id="bennett lane" d="M1391.51,1208.01L1458.3,1116.34" style="fill:none;stroke:#808080;stroke-width:10px;"/>
        <path id="rock-hill-lane" serif:id="rock hill lane" d="M1221.12,1521.95L1244.53,1606.84" style="fill:none;stroke:#808080;stroke-width:10px;"/>
        <path id="hart-court" serif:id="hart court" d="M729.692,807.536L827.303,759.239" style="fill:none;stroke:#808080;stroke-width:10px;"/>
        <path id="brook-park-court" serif:id="brook park court" d="M1558.59,405.953C1558.59,405.953 1514.01,383.432 1488.14,298.627" style="fill:none;stroke:#808080;stroke-width:10px;"/>
        <path id="white-tail-lane" serif:id="white tail lane" d="M1922.27,288.669L1947.58,376.679L1974.77,483.128" style="fill:none;stroke:#808080;stroke-width:10px;"/>
        <path id="juneo-court" serif:id="juneo court" d="M1864.42,394.292C1864.42,394.292 1851.01,345.454 1854.13,333.493" style="fill:none;stroke:#808080;stroke-width:10px;"/>
        <path id="island-terrace" serif:id="island terrace" d="M1695.18,1106.96C1725.29,1083.62 1773.66,1058.81 1773.66,1058.81" style="fill:none;stroke:#808080;stroke-width:10px;"/>
        <path id="lenape-drive" serif:id="lenape drive" d="M1668.31,910.752C1699.87,852.105 1695.97,818.699 1748.99,801.934C1771.82,794.716 1789.37,786.955 1809.45,780.123C1849.46,766.502 1963.21,716.269 1963.21,716.269" style="fill:none;stroke:#808080;stroke-width:10px;"/>
        <path id="beaver-run" serif:id="beaver run" d="M1935.5,905.309C1916.39,936.347 1913.58,986.508 1960.62,1103.51C1976.11,1142.02 1990.72,1150.67 2059.16,1243.87" style="fill:none;stroke:#808080;stroke-width:10px;"/>
        <path id="pequot-court" serif:id="pequot court" d="M2047.07,1069.43C2047.07,1069.43 2064.16,1082.95 2095.64,1075.64C2135.69,1066.35 2166.61,1055.37 2169.61,1031.85C2172.01,1013.04 2170.39,985.461 2153.09,956.671" style="fill:none;stroke:#808080;stroke-width:10px;"/>
        <path id="bushkill-court" serif:id="bushkill court" d="M1985.18,1389.28C2012.17,1404.33 2001.2,1439.36 2027.02,1459.34" style="fill:none;stroke:#808080;stroke-width:10px;"/>
        <path id="bushkill-lane" serif:id="bushkill lane" d="M1852.34,1246.27C1852.34,1246.27 1844.47,1330.86 1866.78,1339.34C1884.2,1345.97 1928.76,1357.83 1985.18,1389.28" style="fill:none;stroke:#808080;stroke-width:10px;"/>
        <path id="hiawatha-trail" serif:id="hiawatha trail" d="M1786.68,1526.32C1786.68,1526.32 1775.22,1575.18 1782.39,1594.07C1788.17,1609.29 1828.32,1638.19 1833.21,1665.29C1838.09,1692.39 1821.85,1730.93 1867.25,1751.4" style="fill:none;stroke:#808080;stroke-width:10px;"/>
        <path id="stockton-drive" serif:id="stockton drive" d="M1781.43,1593.14C1781.43,1593.14 1741.7,1611.97 1728.07,1637.94C1715.45,1661.99 1724.02,1718.23 1722.58,1734.93C1719.57,1769.93 1688.91,1833.23 1681.69,1849.91C1674.51,1866.53 1664.58,1888.52 1664.58,1888.52" style="fill:none;stroke:#808080;stroke-width:10px;"/>
        <path id="whitherspoon-court" serif:id="whitherspoon court" d="M1682.1,1847.22C1647.96,1839.54 1620.28,1836.09 1597.62,1834.69C1577.77,1833.45 1559.4,1829.63 1544.41,1827.39" style="fill:none;stroke:#808080;stroke-width:10px;"/>
        <path id="rodney-road" serif:id="rodney road" d="M1288.96,1751.4C1288.96,1751.4 1300.45,1746.07 1328.68,1732.17C1367.37,1713.11 1361.97,1670.11 1434.7,1623.37C1469.09,1601.27 1495.05,1622.68 1495.05,1622.68" style="fill:none;stroke:#808080;stroke-width:10px;"/>
        <path id="floyd-court" serif:id="floyd court" d="M2229.86,1435.77C2240.71,1434.18 2303.92,1497.96 2303.92,1497.96" style="fill:none;stroke:#808080;stroke-width:10px;"/>
        <path id="barlette-drive" serif:id="barlette drive" d="M2348.45,1433.24C2348.45,1433.24 2360.55,1440.38 2373.4,1440.42C2384.47,1440.46 2397.74,1442.2 2402.67,1447.92C2415.68,1463.04 2436.05,1508.45 2428.54,1539.89C2420.13,1575.08 2392.32,1589.87 2363.25,1628.7C2339.28,1660.73 2292.13,1643.89 2261.3,1631.91" style="fill:none;stroke:#808080;stroke-width:10px;"/>
        <path id="overbrook-court" serif:id="overbrook court" d="M1444.62,504.843C1444.62,504.843 1469.47,567.87 1460.91,610.102" style="fill:none;stroke:#808080;stroke-width:10px;"/>
        <path id="heyward-court" serif:id="heyward court" d="M1105.61,606.452L1180.25,653.051" style="fill:none;stroke:#808080;stroke-width:10px;"/>
        <path id="black-oak-court" serif:id="black oak court" d="M1613.86,890.259C1613.86,890.259 1618.5,850.578 1631.91,834.966" style="fill:none;stroke:#808080;stroke-width:10px;"/>
        <path id="nanticoke-court" serif:id="nanticoke court" d="M2099.51,526.201L2155.09,521.869" style="fill:none;stroke:#808080;stroke-width:10px;"/>
        <path id="montavk-court" serif:id="montavk court" d="M2172.04,1032.05L2224.39,1047.33" style="fill:none;stroke:#808080;stroke-width:10px;"/>
    </g>
</svg>
